<svg width="21" height="21" viewBox="0 0 21 21" fill="none" xmlns="http://www.w3.org/2000/svg">
<g clip-path="url(#clip0)">
<path d="M16.5966 12.4991C16.1667 12.0727 15.6481 11.8448 15.0985 11.8448C14.5534 11.8448 14.0304 12.0685 13.5827 12.4949L12.1821 13.8245C12.0669 13.7654 11.9517 13.7105 11.8409 13.6557C11.6813 13.5797 11.5306 13.5079 11.4021 13.4319C10.0901 12.6384 8.89788 11.6042 7.75438 10.2661C7.20035 9.59916 6.82805 9.03774 6.55769 8.46789C6.92113 8.15131 7.25797 7.82206 7.58595 7.50547C7.71006 7.38728 7.83416 7.26487 7.95826 7.14668C8.88902 6.26024 8.88902 5.11209 7.95826 4.22565L6.74827 3.07328C6.61087 2.94242 6.46904 2.80735 6.33608 2.67227C6.07014 2.41056 5.79092 2.14041 5.50282 1.88714C5.0729 1.48191 4.55877 1.26663 4.01804 1.26663C3.47731 1.26663 2.95431 1.48191 2.51109 1.88714C2.50666 1.89136 2.50666 1.89136 2.50223 1.89558L0.995283 3.34343C0.427962 3.88374 0.104412 4.54223 0.0334966 5.30626C-0.072876 6.53883 0.308293 7.68698 0.600817 8.43834C1.31883 10.283 2.39142 11.9925 3.99145 13.8245C5.93275 16.0322 8.26851 17.7755 10.9367 19.0038C11.9561 19.464 13.3168 20.0085 14.837 20.1013C14.9301 20.1056 15.0276 20.1098 15.1163 20.1098C16.1401 20.1098 16.9999 19.7594 17.6736 19.0629C17.6781 19.0545 17.6869 19.0503 17.6914 19.0418C17.9218 18.7759 18.1878 18.5353 18.467 18.2778C18.6576 18.1047 18.8526 17.9232 19.0432 17.7333C19.482 17.2985 19.7124 16.792 19.7124 16.2728C19.7124 15.7494 19.4775 15.247 19.0299 14.8249L16.5966 12.4991ZM18.1833 16.9439C18.1789 16.9439 18.1789 16.9482 18.1833 16.9439C18.0105 17.1212 17.8332 17.2816 17.6426 17.4589C17.3545 17.7206 17.062 17.995 16.7872 18.3031C16.3395 18.759 15.8121 18.9743 15.1207 18.9743C15.0542 18.9743 14.9833 18.9743 14.9168 18.9701C13.6004 18.8899 12.3772 18.4002 11.4597 17.9823C8.95107 16.8257 6.74827 15.1837 4.91777 13.1027C3.4064 11.3678 2.39586 9.76378 1.72659 8.04156C1.3144 6.99049 1.16371 6.17159 1.23019 5.39913C1.27451 4.90525 1.47396 4.4958 1.84183 4.14545L3.35321 2.70604C3.57039 2.51187 3.80086 2.40634 4.0269 2.40634C4.30613 2.40634 4.53217 2.56674 4.674 2.70182C4.67844 2.70604 4.68287 2.71026 4.6873 2.71448C4.95766 2.95509 5.21473 3.20413 5.48509 3.47007C5.62249 3.60514 5.76432 3.74022 5.90615 3.87952L7.11614 5.03189C7.58595 5.47933 7.58595 5.893 7.11614 6.34044C6.98761 6.46285 6.86351 6.58526 6.73497 6.70346C6.36267 7.06647 6.00809 7.40416 5.62249 7.73341C5.61363 7.74186 5.60476 7.74608 5.60033 7.75452C5.21916 8.11754 5.29008 8.47211 5.36986 8.71272C5.37429 8.72538 5.37872 8.73804 5.38315 8.75071C5.69784 9.47674 6.14106 10.1606 6.81475 10.9752L6.81919 10.9795C8.04247 12.4147 9.33224 13.5333 10.755 14.3901C10.9367 14.4999 11.1228 14.5885 11.3001 14.673C11.4597 14.7489 11.6104 14.8207 11.7389 14.8967C11.7566 14.9051 11.7744 14.9178 11.7921 14.9262C11.9428 14.998 12.0846 15.0318 12.2309 15.0318C12.5988 15.0318 12.8292 14.8123 12.9046 14.7405L14.4204 13.2969C14.5711 13.1534 14.8104 12.9803 15.0897 12.9803C15.3645 12.9803 15.5905 13.1449 15.7279 13.2884C15.7323 13.2927 15.7323 13.2927 15.7368 13.2969L18.1789 15.6227C18.6354 16.0533 18.6354 16.4965 18.1833 16.9439Z" fill="white"/>
<path d="M11.3489 4.86724C12.5101 5.05297 13.565 5.57639 14.4071 6.3784C15.2492 7.18042 15.7944 8.18505 15.9938 9.29099C16.0426 9.56958 16.2952 9.76376 16.5833 9.76376C16.6188 9.76376 16.6498 9.75953 16.6853 9.75531C17.0132 9.70466 17.2304 9.40918 17.1772 9.09682C16.9379 7.75872 16.2731 6.53881 15.2581 5.57217C14.2431 4.60553 12.9622 3.97236 11.5572 3.74442C11.2292 3.69376 10.9234 3.9006 10.8658 4.20874C10.8082 4.51688 11.0209 4.81658 11.3489 4.86724Z" fill="white"/>
<path d="M20.9756 8.93222C20.5811 6.72879 19.4908 4.72375 17.8154 3.12816C16.1401 1.53257 14.0348 0.494171 11.7212 0.11849C11.3976 0.0636152 11.0918 0.274672 11.0342 0.582815C10.981 0.895179 11.1982 1.18644 11.5262 1.24131C13.5916 1.57478 15.4752 2.50765 16.9733 3.93018C18.4714 5.35692 19.4465 7.1509 19.7966 9.11795C19.8454 9.39655 20.098 9.59072 20.3861 9.59072C20.4216 9.59072 20.4526 9.5865 20.4881 9.58228C20.8116 9.53585 21.0332 9.24037 20.9756 8.93222Z" fill="white"/>
</g>
<defs>
<clipPath id="clip0">
<rect width="21" height="20" fill="white" transform="translate(0 0.109802)"/>
</clipPath>
</defs>
</svg>
